<svg xmlns="http://www.w3.org/2000/svg" viewBox="0 0 800 600" width="100%" height="100%">
  <!-- Background with gradient -->
  <defs>
    <linearGradient id="grad1" x1="0%" y1="0%" x2="100%" y2="100%">
      <stop offset="0%" style="stop-color:#2C3E50;stop-opacity:1" />
      <stop offset="100%" style="stop-color:#F68121;stop-opacity:1" />
    </linearGradient>
    <linearGradient id="grad2" x1="0%" y1="0%" x2="100%" y2="100%">
      <stop offset="0%" style="stop-color:#FFF;stop-opacity:0.1" />
      <stop offset="100%" style="stop-color:#FFF;stop-opacity:0.3" />
    </linearGradient>
    <filter id="shadow" x="-20%" y="-20%" width="140%" height="140%">
      <feDropShadow dx="4" dy="4" stdDeviation="8" flood-color="#000" flood-opacity="0.3" />
    </filter>
  </defs>
  
  <!-- Main Device -->
  <rect x="150" y="100" width="500" height="350" rx="20" ry="20" fill="#333" filter="url(#shadow)" />
  <rect x="160" y="110" width="480" height="330" rx="15" ry="15" fill="#222" />
  
  <!-- Screen -->
  <rect x="175" y="125" width="450" height="280" rx="5" ry="5" fill="url(#grad1)" />
  
  <!-- Interface Elements -->
  <!-- Top navigation bar -->
  <rect x="175" y="125" width="450" height="40" rx="5" ry="5" fill="#222" opacity="0.8" />
  
  <!-- Logo and navigation items -->
  <circle cx="195" cy="145" r="10" fill="#F68121" />
  <rect x="215" y="140" width="50" height="10" rx="2" ry="2" fill="#FFF" opacity="0.7" />
  <rect x="275" y="140" width="40" height="10" rx="2" ry="2" fill="#FFF" opacity="0.5" />
  <rect x="325" y="140" width="40" height="10" rx="2" ry="2" fill="#FFF" opacity="0.5" />
  <rect x="375" y="140" width="40" height="10" rx="2" ry="2" fill="#FFF" opacity="0.5" />
  <rect x="570" y="137" width="40" height="16" rx="8" ry="8" fill="#F68121" />
  
  <!-- Content area -->
  <!-- Hero section -->
  <rect x="195" y="185" width="200" height="20" rx="2" ry="2" fill="#FFF" opacity="0.9" />
  <rect x="195" y="215" width="300" height="15" rx="2" ry="2" fill="#FFF" opacity="0.7" />
  <rect x="195" y="240" width="300" height="15" rx="2" ry="2" fill="#FFF" opacity="0.7" />
  <rect x="195" y="265" width="300" height="15" rx="2" ry="2" fill="#FFF" opacity="0.7" />
  
  <!-- Buttons -->
  <rect x="195" y="300" width="100" height="30" rx="15" ry="15" fill="#F68121" />
  <rect x="310" y="300" width="100" height="30" rx="15" ry="15" fill="transparent" stroke="#F68121" stroke-width="2" />
  
  <!-- Feature cards -->
  <rect x="195" y="350" width="80" height="40" rx="5" ry="5" fill="url(#grad2)" />
  <rect x="285" y="350" width="80" height="40" rx="5" ry="5" fill="url(#grad2)" />
  <rect x="375" y="350" width="80" height="40" rx="5" ry="5" fill="url(#grad2)" />
  
  <!-- Decorative elements -->
  <circle cx="580" cy="220" r="25" fill="#F68121" opacity="0.8" />
  <circle cx="550" cy="280" r="40" fill="#2C3E50" opacity="0.6" />
  <circle cx="570" cy="350" r="20" fill="#F68121" opacity="0.4" />
  
  <!-- Device camera and speaker -->
  <circle cx="400" cy="95" r="5" fill="#111" />
  <rect x="350" cy="95" width="100" height="3" rx="1.5" ry="1.5" fill="#111" />
  
  <!-- Device button -->
  <rect x="390" y="435" width="20" height="20" rx="10" ry="10" fill="#444" />
  
  <!-- Floating elements -->
  <circle cx="120" cy="200" r="30" fill="#F68121" opacity="0.2" />
  <circle cx="100" cy="300" r="50" fill="#2C3E50" opacity="0.1" />
  <circle cx="680" cy="150" r="40" fill="#F68121" opacity="0.1" />
  <circle cx="650" cy="400" r="60" fill="#2C3E50" opacity="0.2" />
  
  <!-- Abstract connection lines -->
  <line x1="180" y1="150" x2="100" y2="200" stroke="#FFF" stroke-width="1" opacity="0.3" />
  <line x1="120" y1="350" x2="200" y2="400" stroke="#FFF" stroke-width="1" opacity="0.3" />
  <line x1="600" y1="150" x2="680" y2="100" stroke="#FFF" stroke-width="1" opacity="0.3" />
  <line x1="620" y1="350" x2="700" y2="400" stroke="#FFF" stroke-width="1" opacity="0.3" />
</svg>
